_________________________  Visit us at _________________________
     
http://p2pdl.com  ____________________________  http://p2pdl.com

 
http://www.shotpix.com/images/26960481201154824415.jpg


Avicii Vs Nicky Romero - I Could Be The One {M4A+MP4} (1080p) x264 [VX] [P2PDL]


                        1080p Full HD MP4 Video
                                  +
                         128 Kbps/VBR M4A Audio

General
Format                         : MPEG-4
Format profile                 : Base Media / Version 2
Codec ID                       : mp42
File size                      : 44.8 MiB
Duration                       : 4mn 45s
Overall bit rate mode          : Variable
Overall bit rate               : 1 316 Kbps
Video
ID                             : 1
Format                         : AVC
Format/Info                    : Advanced Video Codec
Bit rate                       : 1 180 Kbps
Width                          : 1 920 pixels
Height                         : 808 pixels
Display aspect ratio           : 2.40:1
Frame rate mode                : Variable
Frame rate                     : 23.976 fps
Stream size                    : 40.3 MiB (90%)
Writing library                : x264 core 128

Audio
ID                             : 2
Format                         : AAC
Bit rate mode                  : Variable
Bit rate                       : 128 Kbps
Channel(s)                     : 2 channels
Channel positions              : Front: L R
Sampling rate                  : 48.0 KHz
Compression mode               : Lossy
Stream size                    : 4.36 MiB (10%)

Subtitles                      : No

Screens:
 
http://www.shotpix.com/images/89494127831145513393.jpg 
http://www.shotpix.com/images/72917201474023617192.jpg

Thumbs:
 
http://www.shotpix.com/images/45212273222418078042.jpg

------------------------------------------------------------------------

Notes:

* Recommended to use latest version VLC Media Player.
* Install shark007 codecs in case of any kind of problem in playback (For non-VLC Media Player users).
* Alternatively, install Core AVC codecs, the fastest decoder that there is coupled with Community Center Codec Pack and play on Windows Media Player Classic.

Greets to: VYTO, a2zRG, stumpie1971, Sheychi, staff members at ExtraTorrent, TPB,KAT, 1337x, PublicHD, Ahashare, TorrentMafia, Limetorrents, BTScene, P2PDL, and all others

Encoder Notes: Looking For Early Access To Anything You Can Provide DVDScr, R5, DVDRips, BluRay, Direct Audio, Early Music
Releases, Seedboxes, Links, Dedicated Servers anything u can provide, Advance / Promo CDs/DVDs. If You Got anything to
offer contact me at "prg@hush.com"

Facebook Fan Page: www . facebook . com / p2pdl